<svg xmlns="http://www.w3.org/2000/svg" xmlns:xlink="http://www.w3.org/1999/xlink" width="500" height="179.452" viewBox="0 0 500 179.452">
  <defs>
    <clipPath id="clip-path">
      <rect id="Rectángulo_5369" data-name="Rectángulo 5369" width="67.394" height="76.295" fill="none"/>
    </clipPath>
  </defs>
  <g id="Grupo_56075" data-name="Grupo 56075" transform="translate(-492 -556.863)">
    <rect id="Rectángulo_5358" data-name="Rectángulo 5358" width="229" height="100" rx="10" transform="translate(492 636.315)" fill="#ede3b7"/>
    <rect id="Rectángulo_5359" data-name="Rectángulo 5359" width="208" height="100" rx="10" transform="translate(784 636.315)" fill="#efebd7"/>
    <path id="Trazado_105988" data-name="Trazado 105988" d="M61.334,14.491V19H58.7V6.2H63.69a5.776,5.776,0,0,1,2.536.527,3.886,3.886,0,0,1,1.683,1.5,4.178,4.178,0,0,1,.589,2.21,3.674,3.674,0,0,1-1.288,2.966,5.363,5.363,0,0,1-3.564,1.085Zm0-2.136H63.69a2.316,2.316,0,0,0,1.6-.492,1.79,1.79,0,0,0,.549-1.406,2.111,2.111,0,0,0-.554-1.521,2.068,2.068,0,0,0-1.529-.6H61.334Zm14.15-.483a6.9,6.9,0,0,0-.914-.07,1.86,1.86,0,0,0-1.89.976V19h-2.54V9.49h2.4l.07,1.134a2.354,2.354,0,0,1,2.118-1.31,2.662,2.662,0,0,1,.791.114Zm.51,2.285a5.64,5.64,0,0,1,.545-2.522,3.989,3.989,0,0,1,1.569-1.714,4.577,4.577,0,0,1,2.377-.606,4.33,4.33,0,0,1,3.142,1.178,4.727,4.727,0,0,1,1.358,3.2l.018.65a4.97,4.97,0,0,1-1.222,3.511,4.735,4.735,0,0,1-6.561,0,5.058,5.058,0,0,1-1.226-3.586Zm2.54.18a3.555,3.555,0,0,0,.51,2.073,1.831,1.831,0,0,0,2.9.009,3.89,3.89,0,0,0,.519-2.267,3.519,3.519,0,0,0-.519-2.06,1.686,1.686,0,0,0-1.459-.731,1.658,1.658,0,0,0-1.441.726A3.955,3.955,0,0,0,78.535,14.338Zm7.638-.163a5.731,5.731,0,0,1,1-3.542A3.237,3.237,0,0,1,89.9,9.314a2.913,2.913,0,0,1,2.294,1.037V5.5h2.549V19H92.448l-.123-1.011a2.989,2.989,0,0,1-2.443,1.187,3.228,3.228,0,0,1-2.694-1.323A5.916,5.916,0,0,1,86.172,14.175Zm2.54.189a3.754,3.754,0,0,0,.466,2.051,1.517,1.517,0,0,0,1.354.713,1.7,1.7,0,0,0,1.661-.995V12.375a1.675,1.675,0,0,0-1.644-.995Q88.712,11.38,88.712,14.364Zm13.693,3.669a3.185,3.185,0,0,1-2.6,1.143,3,3,0,0,1-2.333-.879,3.752,3.752,0,0,1-.822-2.575V9.49h2.54v6.151q0,1.487,1.354,1.487a1.834,1.834,0,0,0,1.775-.9V9.49h2.549V19h-2.391Zm8.332-.905a1.666,1.666,0,0,0,1.143-.387,1.355,1.355,0,0,0,.457-1.028h2.382a3.258,3.258,0,0,1-.527,1.771,3.48,3.48,0,0,1-1.419,1.248,4.442,4.442,0,0,1-1.991.444,4.129,4.129,0,0,1-3.217-1.3,5.13,5.13,0,0,1-1.178-3.582v-.167a5.071,5.071,0,0,1,1.169-3.507,4.08,4.08,0,0,1,3.208-1.31,4,4,0,0,1,2.861,1.015,3.594,3.594,0,0,1,1.094,2.7h-2.382a1.745,1.745,0,0,0-.457-1.206,1.7,1.7,0,0,0-2.5.183,3.749,3.749,0,0,0-.453,2.1v.264a3.8,3.8,0,0,0,.448,2.113A1.549,1.549,0,0,0,110.738,17.128Zm8.473-9.976V9.49h1.626v1.863H119.21V16.1a1.133,1.133,0,0,0,.2.756,1.015,1.015,0,0,0,.773.229,4.051,4.051,0,0,0,.747-.062v1.925a5.229,5.229,0,0,1-1.538.229,2.425,2.425,0,0,1-2.725-2.7V11.354h-1.389V9.49h1.389V7.152Zm2.382,7a5.64,5.64,0,0,1,.545-2.522,3.989,3.989,0,0,1,1.569-1.714,4.577,4.577,0,0,1,2.377-.606,4.33,4.33,0,0,1,3.142,1.178,4.727,4.727,0,0,1,1.358,3.2l.018.65a4.97,4.97,0,0,1-1.222,3.511,4.735,4.735,0,0,1-6.561,0,5.058,5.058,0,0,1-1.226-3.586Zm2.54.18a3.555,3.555,0,0,0,.51,2.073,1.831,1.831,0,0,0,2.9.009,3.89,3.89,0,0,0,.519-2.267,3.519,3.519,0,0,0-.519-2.06,1.686,1.686,0,0,0-1.459-.731,1.658,1.658,0,0,0-1.441.726A3.955,3.955,0,0,0,124.132,14.338Zm13.184,2.035a.818.818,0,0,0-.461-.734,5.241,5.241,0,0,0-1.481-.479q-3.393-.712-3.393-2.883a2.613,2.613,0,0,1,1.05-2.114,4.237,4.237,0,0,1,2.747-.848,4.56,4.56,0,0,1,2.9.853,2.687,2.687,0,0,1,1.085,2.215h-2.54a1.229,1.229,0,0,0-.352-.9,1.488,1.488,0,0,0-1.1-.356,1.52,1.52,0,0,0-.993.29.916.916,0,0,0-.352.738.783.783,0,0,0,.4.681,4.114,4.114,0,0,0,1.349.448,11.019,11.019,0,0,1,1.6.426,2.628,2.628,0,0,1,2.013,2.558,2.481,2.481,0,0,1-1.116,2.1,4.815,4.815,0,0,1-2.883.8,5.029,5.029,0,0,1-2.123-.426,3.561,3.561,0,0,1-1.455-1.169,2.716,2.716,0,0,1-.527-1.6h2.408a1.326,1.326,0,0,0,.5,1.037,1.987,1.987,0,0,0,1.248.36,1.839,1.839,0,0,0,1.1-.277A.861.861,0,0,0,137.316,16.372ZM5.454,34.175a5.731,5.731,0,0,1,1-3.542A3.237,3.237,0,0,1,9.18,29.314a2.913,2.913,0,0,1,2.294,1.037V25.5h2.549V39H11.729l-.123-1.011a2.989,2.989,0,0,1-2.443,1.187,3.228,3.228,0,0,1-2.694-1.323A5.916,5.916,0,0,1,5.454,34.175Zm2.54.189a3.754,3.754,0,0,0,.466,2.051,1.517,1.517,0,0,0,1.354.713,1.7,1.7,0,0,0,1.661-.995V32.375a1.675,1.675,0,0,0-1.644-.995Q7.994,31.38,7.994,34.364Zm12.375,4.812a4.668,4.668,0,0,1-3.406-1.283,4.561,4.561,0,0,1-1.314-3.419v-.246a5.745,5.745,0,0,1,.554-2.562,4.064,4.064,0,0,1,1.569-1.74,4.4,4.4,0,0,1,2.316-.611,3.947,3.947,0,0,1,3.072,1.23,5,5,0,0,1,1.121,3.489v1.037H18.224a2.36,2.36,0,0,0,.743,1.494,2.245,2.245,0,0,0,1.569.563,2.742,2.742,0,0,0,2.294-1.063l1.248,1.4a3.813,3.813,0,0,1-1.547,1.261A5.075,5.075,0,0,1,20.369,39.176Zm-.29-7.813a1.587,1.587,0,0,0-1.226.512,2.651,2.651,0,0,0-.6,1.466h3.533v-.2a1.891,1.891,0,0,0-.457-1.311A1.638,1.638,0,0,0,20.079,31.362Zm10.793,5.01a.818.818,0,0,0-.461-.734,5.241,5.241,0,0,0-1.481-.479q-3.393-.712-3.393-2.883a2.613,2.613,0,0,1,1.05-2.114,4.237,4.237,0,0,1,2.747-.848,4.56,4.56,0,0,1,2.9.853,2.687,2.687,0,0,1,1.085,2.215h-2.54a1.229,1.229,0,0,0-.352-.9,1.488,1.488,0,0,0-1.1-.356,1.52,1.52,0,0,0-.993.29.916.916,0,0,0-.352.738.783.783,0,0,0,.4.681,4.114,4.114,0,0,0,1.349.448,11.019,11.019,0,0,1,1.6.426,2.628,2.628,0,0,1,2.013,2.558,2.481,2.481,0,0,1-1.116,2.1,4.815,4.815,0,0,1-2.883.8,5.029,5.029,0,0,1-2.123-.426,3.561,3.561,0,0,1-1.455-1.169,2.716,2.716,0,0,1-.527-1.6h2.408a1.326,1.326,0,0,0,.5,1.037,1.987,1.987,0,0,0,1.248.36,1.839,1.839,0,0,0,1.1-.277A.861.861,0,0,0,30.872,36.372ZM35.67,39V31.354H34.255V29.49H35.67v-.809a3.283,3.283,0,0,1,.918-2.483,3.557,3.557,0,0,1,2.571-.883,5.938,5.938,0,0,1,1.292.176l-.026,1.969a3.238,3.238,0,0,0-.773-.079q-1.433,0-1.433,1.345v.765h1.89v1.863h-1.89V39Zm11.268,0a2.821,2.821,0,0,1-.255-.853,3.073,3.073,0,0,1-2.4,1.028,3.376,3.376,0,0,1-2.316-.809,2.6,2.6,0,0,1-.918-2.039,2.687,2.687,0,0,1,1.121-2.32,5.529,5.529,0,0,1,3.239-.817h1.169v-.545a1.567,1.567,0,0,0-.338-1.055,1.331,1.331,0,0,0-1.068-.4,1.513,1.513,0,0,0-1.006.308,1.045,1.045,0,0,0-.365.844H41.26a2.551,2.551,0,0,1,.51-1.529,3.37,3.37,0,0,1,1.441-1.1,5.253,5.253,0,0,1,2.092-.4,4.15,4.15,0,0,1,2.791.883,3.09,3.09,0,0,1,1.033,2.483V36.8a4.546,4.546,0,0,0,.378,2.048V39Zm-2.1-1.767a2.188,2.188,0,0,0,1.037-.25,1.645,1.645,0,0,0,.7-.672V34.676h-.949q-1.907,0-2.03,1.318l-.009.149a1.017,1.017,0,0,0,.334.782A1.3,1.3,0,0,0,44.837,37.233Zm11.391-.861a.818.818,0,0,0-.461-.734,5.241,5.241,0,0,0-1.481-.479q-3.393-.712-3.393-2.883a2.613,2.613,0,0,1,1.05-2.114,4.237,4.237,0,0,1,2.747-.848,4.56,4.56,0,0,1,2.9.853,2.687,2.687,0,0,1,1.085,2.215h-2.54a1.229,1.229,0,0,0-.352-.9,1.488,1.488,0,0,0-1.1-.356,1.52,1.52,0,0,0-.993.29.916.916,0,0,0-.352.738.783.783,0,0,0,.4.681,4.114,4.114,0,0,0,1.349.448,11.019,11.019,0,0,1,1.6.426A2.628,2.628,0,0,1,58.7,36.267a2.481,2.481,0,0,1-1.116,2.1,4.815,4.815,0,0,1-2.883.8,5.029,5.029,0,0,1-2.123-.426,3.561,3.561,0,0,1-1.455-1.169,2.716,2.716,0,0,1-.527-1.6H53a1.326,1.326,0,0,0,.5,1.037,1.987,1.987,0,0,0,1.248.36,1.839,1.839,0,0,0,1.1-.277A.861.861,0,0,0,56.228,36.372ZM65.843,39a2.821,2.821,0,0,1-.255-.853,3.073,3.073,0,0,1-2.4,1.028,3.376,3.376,0,0,1-2.316-.809,2.6,2.6,0,0,1-.918-2.039,2.687,2.687,0,0,1,1.121-2.32,5.529,5.529,0,0,1,3.239-.817h1.169v-.545a1.567,1.567,0,0,0-.338-1.055,1.331,1.331,0,0,0-1.068-.4,1.513,1.513,0,0,0-1.006.308,1.045,1.045,0,0,0-.365.844h-2.54a2.551,2.551,0,0,1,.51-1.529,3.37,3.37,0,0,1,1.441-1.1,5.253,5.253,0,0,1,2.092-.4A4.15,4.15,0,0,1,67,30.2a3.09,3.09,0,0,1,1.033,2.483V36.8a4.546,4.546,0,0,0,.378,2.048V39Zm-2.1-1.767a2.188,2.188,0,0,0,1.037-.25,1.645,1.645,0,0,0,.7-.672V34.676h-.949q-1.907,0-2.03,1.318l-.009.149a1.017,1.017,0,0,0,.334.782A1.3,1.3,0,0,0,63.743,37.233Zm5.845-3.059a5.731,5.731,0,0,1,1-3.542,3.237,3.237,0,0,1,2.729-1.318,2.913,2.913,0,0,1,2.294,1.037V25.5h2.549V39H75.863l-.123-1.011A2.989,2.989,0,0,1,73.3,39.176,3.228,3.228,0,0,1,70.6,37.853,5.916,5.916,0,0,1,69.587,34.175Zm2.54.189a3.754,3.754,0,0,0,.466,2.051,1.517,1.517,0,0,0,1.354.713,1.7,1.7,0,0,0,1.661-.995V32.375a1.675,1.675,0,0,0-1.644-.995Q72.127,31.38,72.127,34.364Zm7.6-.207a5.64,5.64,0,0,1,.545-2.522,3.989,3.989,0,0,1,1.569-1.714,4.577,4.577,0,0,1,2.377-.606,4.33,4.33,0,0,1,3.142,1.178,4.727,4.727,0,0,1,1.358,3.2l.018.65a4.97,4.97,0,0,1-1.222,3.511,4.735,4.735,0,0,1-6.561,0,5.058,5.058,0,0,1-1.226-3.586Zm2.54.18a3.555,3.555,0,0,0,.51,2.073,1.831,1.831,0,0,0,2.9.009,3.89,3.89,0,0,0,.519-2.267,3.519,3.519,0,0,0-.519-2.06,1.686,1.686,0,0,0-1.459-.731,1.658,1.658,0,0,0-1.441.726A3.955,3.955,0,0,0,82.27,34.338Zm13.184,2.035a.818.818,0,0,0-.461-.734,5.241,5.241,0,0,0-1.481-.479q-3.393-.712-3.393-2.883a2.613,2.613,0,0,1,1.05-2.114,4.237,4.237,0,0,1,2.747-.848,4.56,4.56,0,0,1,2.9.853A2.687,2.687,0,0,1,97.9,32.382h-2.54a1.229,1.229,0,0,0-.352-.9,1.488,1.488,0,0,0-1.1-.356,1.52,1.52,0,0,0-.993.29.916.916,0,0,0-.352.738.783.783,0,0,0,.4.681,4.114,4.114,0,0,0,1.349.448,11.019,11.019,0,0,1,1.6.426,2.628,2.628,0,0,1,2.013,2.558,2.481,2.481,0,0,1-1.116,2.1,4.815,4.815,0,0,1-2.883.8A5.029,5.029,0,0,1,91.8,38.75a3.561,3.561,0,0,1-1.455-1.169,2.716,2.716,0,0,1-.527-1.6h2.408a1.326,1.326,0,0,0,.5,1.037,1.987,1.987,0,0,0,1.248.36,1.839,1.839,0,0,0,1.1-.277A.861.861,0,0,0,95.454,36.372Zm4.9,3.727h-1.89l4.711-13.9h1.89Zm5.528-5.924a5.731,5.731,0,0,1,1-3.542,3.237,3.237,0,0,1,2.729-1.318,2.913,2.913,0,0,1,2.294,1.037V25.5h2.549V39h-2.294l-.123-1.011a2.989,2.989,0,0,1-2.443,1.187,3.228,3.228,0,0,1-2.694-1.323A5.916,5.916,0,0,1,105.886,34.175Zm2.54.189a3.754,3.754,0,0,0,.466,2.051,1.517,1.517,0,0,0,1.354.713,1.7,1.7,0,0,0,1.661-.995V32.375a1.675,1.675,0,0,0-1.644-.995Q108.426,31.38,108.426,34.364ZM120.8,39.176a4.668,4.668,0,0,1-3.406-1.283,4.561,4.561,0,0,1-1.314-3.419v-.246a5.745,5.745,0,0,1,.554-2.562,4.064,4.064,0,0,1,1.569-1.74,4.4,4.4,0,0,1,2.316-.611,3.947,3.947,0,0,1,3.072,1.23,5,5,0,0,1,1.121,3.489v1.037h-6.056a2.36,2.36,0,0,0,.743,1.494,2.245,2.245,0,0,0,1.569.563,2.742,2.742,0,0,0,2.294-1.063l1.248,1.4a3.813,3.813,0,0,1-1.547,1.261A5.075,5.075,0,0,1,120.8,39.176Zm-.29-7.813a1.587,1.587,0,0,0-1.226.512,2.651,2.651,0,0,0-.6,1.466h3.533v-.2a1.891,1.891,0,0,0-.457-1.311A1.638,1.638,0,0,0,120.511,31.362Zm10.793,5.01a.818.818,0,0,0-.461-.734,5.241,5.241,0,0,0-1.481-.479q-3.393-.712-3.393-2.883a2.613,2.613,0,0,1,1.05-2.114,4.237,4.237,0,0,1,2.747-.848,4.56,4.56,0,0,1,2.9.853,2.687,2.687,0,0,1,1.085,2.215h-2.54a1.229,1.229,0,0,0-.352-.9,1.488,1.488,0,0,0-1.1-.356,1.52,1.52,0,0,0-.993.29.916.916,0,0,0-.352.738.783.783,0,0,0,.4.681,4.114,4.114,0,0,0,1.349.448,11.019,11.019,0,0,1,1.6.426,2.628,2.628,0,0,1,2.013,2.558,2.481,2.481,0,0,1-1.116,2.1,4.815,4.815,0,0,1-2.883.8,5.029,5.029,0,0,1-2.123-.426,3.561,3.561,0,0,1-1.455-1.169,2.716,2.716,0,0,1-.527-1.6h2.408a1.326,1.326,0,0,0,.5,1.037,1.987,1.987,0,0,0,1.248.36,1.839,1.839,0,0,0,1.1-.277A.861.861,0,0,0,131.3,36.372Zm6.583-5.845a3.17,3.17,0,0,1,2.54-1.213q3.094,0,3.138,3.595V39h-2.54V32.979a1.767,1.767,0,0,0-.352-1.208,1.507,1.507,0,0,0-1.169-.391,1.729,1.729,0,0,0-1.617.861V39h-2.54V25.5h2.54Zm11.971,8.648a4.668,4.668,0,0,1-3.406-1.283,4.561,4.561,0,0,1-1.314-3.419v-.246a5.745,5.745,0,0,1,.554-2.562,4.064,4.064,0,0,1,1.569-1.74,4.4,4.4,0,0,1,2.316-.611,3.947,3.947,0,0,1,3.072,1.23,5,5,0,0,1,1.121,3.489v1.037h-6.056a2.36,2.36,0,0,0,.743,1.494,2.245,2.245,0,0,0,1.569.563,2.742,2.742,0,0,0,2.294-1.063l1.248,1.4a3.813,3.813,0,0,1-1.547,1.261A5.075,5.075,0,0,1,149.858,39.176Zm-.29-7.813a1.587,1.587,0,0,0-1.226.512,2.651,2.651,0,0,0-.6,1.466h3.533v-.2a1.891,1.891,0,0,0-.457-1.311A1.638,1.638,0,0,0,149.568,31.362Zm9.6,5.766a1.666,1.666,0,0,0,1.143-.387,1.355,1.355,0,0,0,.457-1.028h2.382a3.258,3.258,0,0,1-.527,1.771,3.48,3.48,0,0,1-1.419,1.248,4.442,4.442,0,0,1-1.991.444,4.129,4.129,0,0,1-3.217-1.3,5.13,5.13,0,0,1-1.178-3.582v-.167a5.071,5.071,0,0,1,1.169-3.507,4.08,4.08,0,0,1,3.208-1.31,4,4,0,0,1,2.861,1.015,3.594,3.594,0,0,1,1.094,2.7h-2.382a1.745,1.745,0,0,0-.457-1.206,1.7,1.7,0,0,0-2.5.183,3.749,3.749,0,0,0-.453,2.1v.264a3.8,3.8,0,0,0,.448,2.113A1.549,1.549,0,0,0,159.166,37.128Zm7.91-6.6a3.17,3.17,0,0,1,2.54-1.213q3.094,0,3.138,3.595V39h-2.54V32.979a1.767,1.767,0,0,0-.352-1.208,1.507,1.507,0,0,0-1.169-.391,1.729,1.729,0,0,0-1.617.861V39h-2.54V25.5h2.54Zm7.2,3.63a5.64,5.64,0,0,1,.545-2.522,3.989,3.989,0,0,1,1.569-1.714,4.577,4.577,0,0,1,2.377-.606,4.33,4.33,0,0,1,3.142,1.178,4.727,4.727,0,0,1,1.358,3.2l.018.65a4.97,4.97,0,0,1-1.222,3.511,4.735,4.735,0,0,1-6.561,0,5.058,5.058,0,0,1-1.226-3.586Zm2.54.18a3.555,3.555,0,0,0,.51,2.073,1.831,1.831,0,0,0,2.9.009,3.89,3.89,0,0,0,.519-2.267,3.519,3.519,0,0,0-.519-2.06,1.686,1.686,0,0,0-1.459-.731,1.658,1.658,0,0,0-1.441.726A3.955,3.955,0,0,0,176.814,34.338ZM190,36.372a.818.818,0,0,0-.461-.734,5.241,5.241,0,0,0-1.481-.479q-3.393-.712-3.393-2.883a2.613,2.613,0,0,1,1.05-2.114,4.237,4.237,0,0,1,2.747-.848,4.56,4.56,0,0,1,2.9.853,2.687,2.687,0,0,1,1.085,2.215H189.9a1.229,1.229,0,0,0-.352-.9,1.488,1.488,0,0,0-1.1-.356,1.52,1.52,0,0,0-.993.29.916.916,0,0,0-.352.738.783.783,0,0,0,.4.681,4.114,4.114,0,0,0,1.349.448,11.019,11.019,0,0,1,1.6.426,2.628,2.628,0,0,1,2.013,2.558,2.481,2.481,0,0,1-1.116,2.1,4.815,4.815,0,0,1-2.883.8,5.029,5.029,0,0,1-2.123-.426,3.561,3.561,0,0,1-1.455-1.169,2.716,2.716,0,0,1-.527-1.6h2.408a1.326,1.326,0,0,0,.5,1.037,1.987,1.987,0,0,0,1.248.36,1.839,1.839,0,0,0,1.1-.277A.861.861,0,0,0,190,36.372Z" transform="translate(507.5 674.727)" fill="#12263f"/>
    <path id="Trazado_105989" data-name="Trazado 105989" d="M44.834,14.491V19H42.2V6.2H47.19a5.776,5.776,0,0,1,2.536.527,3.886,3.886,0,0,1,1.683,1.5A4.178,4.178,0,0,1,52,10.439a3.674,3.674,0,0,1-1.288,2.966,5.363,5.363,0,0,1-3.564,1.085Zm0-2.136H47.19a2.316,2.316,0,0,0,1.6-.492,1.79,1.79,0,0,0,.549-1.406,2.111,2.111,0,0,0-.554-1.521,2.068,2.068,0,0,0-1.529-.6H44.834Zm14.15-.483a6.9,6.9,0,0,0-.914-.07,1.86,1.86,0,0,0-1.89.976V19h-2.54V9.49h2.4l.07,1.134a2.354,2.354,0,0,1,2.118-1.31,2.662,2.662,0,0,1,.791.114Zm.51,2.285a5.64,5.64,0,0,1,.545-2.522,3.989,3.989,0,0,1,1.569-1.714,4.577,4.577,0,0,1,2.377-.606,4.33,4.33,0,0,1,3.142,1.178,4.727,4.727,0,0,1,1.358,3.2l.018.65a4.97,4.97,0,0,1-1.222,3.511,4.735,4.735,0,0,1-6.561,0,5.058,5.058,0,0,1-1.226-3.586Zm2.54.18a3.555,3.555,0,0,0,.51,2.073,1.831,1.831,0,0,0,2.9.009,3.89,3.89,0,0,0,.519-2.267,3.519,3.519,0,0,0-.519-2.06,1.686,1.686,0,0,0-1.459-.731,1.658,1.658,0,0,0-1.441.726A3.955,3.955,0,0,0,62.035,14.338Zm7.638-.163a5.731,5.731,0,0,1,1-3.542A3.237,3.237,0,0,1,73.4,9.314a2.913,2.913,0,0,1,2.294,1.037V5.5h2.549V19H75.948l-.123-1.011a2.989,2.989,0,0,1-2.443,1.187,3.228,3.228,0,0,1-2.694-1.323A5.916,5.916,0,0,1,69.672,14.175Zm2.54.189a3.754,3.754,0,0,0,.466,2.051,1.517,1.517,0,0,0,1.354.713,1.7,1.7,0,0,0,1.661-.995V12.375a1.675,1.675,0,0,0-1.644-.995Q72.212,11.38,72.212,14.364Zm13.693,3.669a3.185,3.185,0,0,1-2.6,1.143,3,3,0,0,1-2.333-.879,3.752,3.752,0,0,1-.822-2.575V9.49h2.54v6.151q0,1.487,1.354,1.487a1.834,1.834,0,0,0,1.775-.9V9.49h2.549V19H85.976Zm8.332-.905a1.666,1.666,0,0,0,1.143-.387,1.355,1.355,0,0,0,.457-1.028h2.382a3.258,3.258,0,0,1-.527,1.771,3.48,3.48,0,0,1-1.419,1.248,4.442,4.442,0,0,1-1.991.444,4.129,4.129,0,0,1-3.217-1.3A5.13,5.13,0,0,1,89.887,14.3v-.167a5.071,5.071,0,0,1,1.169-3.507,4.08,4.08,0,0,1,3.208-1.31,4,4,0,0,1,2.861,1.015,3.594,3.594,0,0,1,1.094,2.7H95.837a1.745,1.745,0,0,0-.457-1.206,1.7,1.7,0,0,0-2.5.183,3.749,3.749,0,0,0-.453,2.1v.264a3.8,3.8,0,0,0,.448,2.113A1.549,1.549,0,0,0,94.238,17.128Zm8.473-9.976V9.49h1.626v1.863H102.71V16.1a1.133,1.133,0,0,0,.2.756,1.015,1.015,0,0,0,.773.229,4.051,4.051,0,0,0,.747-.062v1.925a5.229,5.229,0,0,1-1.538.229,2.425,2.425,0,0,1-2.725-2.7V11.354H98.782V9.49h1.389V7.152Zm2.382,7a5.64,5.64,0,0,1,.545-2.522,3.989,3.989,0,0,1,1.569-1.714,4.577,4.577,0,0,1,2.377-.606,4.33,4.33,0,0,1,3.142,1.178,4.727,4.727,0,0,1,1.358,3.2l.018.65a4.97,4.97,0,0,1-1.222,3.511,4.735,4.735,0,0,1-6.561,0,5.058,5.058,0,0,1-1.226-3.586Zm2.54.18a3.555,3.555,0,0,0,.51,2.073,1.831,1.831,0,0,0,2.9.009,3.89,3.89,0,0,0,.519-2.267,3.519,3.519,0,0,0-.519-2.06,1.686,1.686,0,0,0-1.459-.731,1.658,1.658,0,0,0-1.441.726A3.955,3.955,0,0,0,107.632,14.338Zm13.184,2.035a.818.818,0,0,0-.461-.734,5.241,5.241,0,0,0-1.481-.479q-3.393-.712-3.393-2.883a2.613,2.613,0,0,1,1.05-2.114,4.237,4.237,0,0,1,2.747-.848,4.56,4.56,0,0,1,2.9.853,2.687,2.687,0,0,1,1.085,2.215h-2.54a1.229,1.229,0,0,0-.352-.9,1.488,1.488,0,0,0-1.1-.356,1.52,1.52,0,0,0-.993.29.916.916,0,0,0-.352.738.783.783,0,0,0,.4.681,4.114,4.114,0,0,0,1.349.448,11.019,11.019,0,0,1,1.6.426,2.628,2.628,0,0,1,2.013,2.558,2.481,2.481,0,0,1-1.116,2.1,4.815,4.815,0,0,1-2.883.8,5.029,5.029,0,0,1-2.123-.426,3.561,3.561,0,0,1-1.455-1.169,2.716,2.716,0,0,1-.527-1.6h2.408a1.326,1.326,0,0,0,.5,1.037,1.987,1.987,0,0,0,1.248.36,1.839,1.839,0,0,0,1.1-.277A.861.861,0,0,0,120.816,16.372ZM15.751,37.128a1.666,1.666,0,0,0,1.143-.387,1.355,1.355,0,0,0,.457-1.028h2.382a3.258,3.258,0,0,1-.527,1.771,3.48,3.48,0,0,1-1.419,1.248,4.442,4.442,0,0,1-1.991.444,4.129,4.129,0,0,1-3.217-1.3A5.13,5.13,0,0,1,11.4,34.3v-.167a5.071,5.071,0,0,1,1.169-3.507,4.08,4.08,0,0,1,3.208-1.31,4,4,0,0,1,2.861,1.015,3.594,3.594,0,0,1,1.094,2.7H17.351a1.745,1.745,0,0,0-.457-1.206,1.7,1.7,0,0,0-2.5.183,3.749,3.749,0,0,0-.453,2.1v.264a3.8,3.8,0,0,0,.448,2.113A1.549,1.549,0,0,0,15.751,37.128Zm5.036-2.971a5.64,5.64,0,0,1,.545-2.522A3.989,3.989,0,0,1,22.9,29.921a4.577,4.577,0,0,1,2.377-.606,4.33,4.33,0,0,1,3.142,1.178,4.727,4.727,0,0,1,1.358,3.2l.018.65a4.97,4.97,0,0,1-1.222,3.511A4.247,4.247,0,0,1,25.3,39.176a4.268,4.268,0,0,1-3.283-1.318,5.058,5.058,0,0,1-1.226-3.586Zm2.54.18a3.555,3.555,0,0,0,.51,2.073,1.831,1.831,0,0,0,2.9.009,3.89,3.89,0,0,0,.519-2.267,3.519,3.519,0,0,0-.519-2.06,1.686,1.686,0,0,0-1.459-.731,1.658,1.658,0,0,0-1.441.726A3.955,3.955,0,0,0,23.328,34.338ZM33.7,29.49l.079,1.1a3.32,3.32,0,0,1,2.733-1.274,2.759,2.759,0,0,1,2.25.888,4.142,4.142,0,0,1,.756,2.654V39h-2.54V32.918a1.648,1.648,0,0,0-.352-1.173,1.574,1.574,0,0,0-1.169-.365,1.747,1.747,0,0,0-1.608.914V39h-2.54V29.49ZM49.484,35.9,51.25,29.49H53.9L50.7,39H48.271l-3.208-9.51h2.654ZM60.4,39a2.821,2.821,0,0,1-.255-.853,3.073,3.073,0,0,1-2.4,1.028,3.376,3.376,0,0,1-2.316-.809,2.6,2.6,0,0,1-.918-2.039,2.687,2.687,0,0,1,1.121-2.32,5.529,5.529,0,0,1,3.239-.817H60.04v-.545a1.567,1.567,0,0,0-.338-1.055,1.331,1.331,0,0,0-1.068-.4,1.513,1.513,0,0,0-1.006.308,1.045,1.045,0,0,0-.365.844h-2.54a2.551,2.551,0,0,1,.51-1.529,3.37,3.37,0,0,1,1.441-1.1,5.253,5.253,0,0,1,2.092-.4,4.15,4.15,0,0,1,2.791.883,3.09,3.09,0,0,1,1.033,2.483V36.8a4.546,4.546,0,0,0,.378,2.048V39Zm-2.1-1.767a2.188,2.188,0,0,0,1.037-.25,1.645,1.645,0,0,0,.7-.672V34.676H59.09q-1.907,0-2.03,1.318l-.009.149a1.017,1.017,0,0,0,.334.782A1.3,1.3,0,0,0,58.3,37.233ZM67.22,39H64.671V25.5H67.22Zm1.7-4.843a5.64,5.64,0,0,1,.545-2.522,3.989,3.989,0,0,1,1.569-1.714,4.577,4.577,0,0,1,2.377-.606,4.33,4.33,0,0,1,3.142,1.178,4.727,4.727,0,0,1,1.358,3.2l.018.65A4.97,4.97,0,0,1,76.7,37.853a4.735,4.735,0,0,1-6.561,0,5.058,5.058,0,0,1-1.226-3.586Zm2.54.18a3.555,3.555,0,0,0,.51,2.073,1.831,1.831,0,0,0,2.9.009,3.89,3.89,0,0,0,.519-2.267,3.519,3.519,0,0,0-.519-2.06,1.686,1.686,0,0,0-1.459-.731,1.658,1.658,0,0,0-1.441.726A3.955,3.955,0,0,0,71.457,34.338Zm13.377-2.465a6.9,6.9,0,0,0-.914-.07,1.86,1.86,0,0,0-1.89.976V39H79.49V29.49h2.4l.07,1.134a2.354,2.354,0,0,1,2.118-1.31,2.662,2.662,0,0,1,.791.114ZM96.048,39a2.821,2.821,0,0,1-.255-.853,3.073,3.073,0,0,1-2.4,1.028,3.376,3.376,0,0,1-2.316-.809,2.6,2.6,0,0,1-.918-2.039,2.687,2.687,0,0,1,1.121-2.32,5.529,5.529,0,0,1,3.239-.817h1.169v-.545a1.567,1.567,0,0,0-.338-1.055,1.331,1.331,0,0,0-1.068-.4,1.513,1.513,0,0,0-1.006.308,1.045,1.045,0,0,0-.365.844h-2.54a2.551,2.551,0,0,1,.51-1.529,3.37,3.37,0,0,1,1.441-1.1,5.253,5.253,0,0,1,2.092-.4A4.15,4.15,0,0,1,97.2,30.2a3.09,3.09,0,0,1,1.033,2.483V36.8a4.546,4.546,0,0,0,.378,2.048V39Zm-2.1-1.767a2.188,2.188,0,0,0,1.037-.25,1.645,1.645,0,0,0,.7-.672V34.676h-.949q-1.907,0-2.03,1.318l-.009.149a1.017,1.017,0,0,0,.334.782A1.3,1.3,0,0,0,93.948,37.233Zm8.578-7.743.079,1.1a3.32,3.32,0,0,1,2.733-1.274,2.759,2.759,0,0,1,2.25.888,4.142,4.142,0,0,1,.756,2.654V39H105.8V32.918a1.648,1.648,0,0,0-.352-1.173,1.574,1.574,0,0,0-1.169-.365,1.747,1.747,0,0,0-1.608.914V39h-2.54V29.49Zm5.045-3.876a2.46,2.46,0,0,1-.58,1.666,1.8,1.8,0,0,1-1.415.672,2.146,2.146,0,0,1-.593-.075,3.981,3.981,0,0,1-.716-.321,3.864,3.864,0,0,0-.659-.3,1.611,1.611,0,0,0-.439-.057.7.7,0,0,0-.523.22.854.854,0,0,0-.215.624l-1.477-.088a2.5,2.5,0,0,1,.576-1.661,1.776,1.776,0,0,1,1.411-.686,1.816,1.816,0,0,1,.5.066,5.468,5.468,0,0,1,.76.321,4.941,4.941,0,0,0,.729.308,1.665,1.665,0,0,0,.422.053.741.741,0,0,0,.532-.215.819.819,0,0,0,.224-.62ZM115.78,39a2.821,2.821,0,0,1-.255-.853,3.073,3.073,0,0,1-2.4,1.028,3.376,3.376,0,0,1-2.316-.809,2.6,2.6,0,0,1-.918-2.039,2.687,2.687,0,0,1,1.121-2.32,5.529,5.529,0,0,1,3.239-.817h1.169v-.545a1.567,1.567,0,0,0-.338-1.055,1.331,1.331,0,0,0-1.068-.4,1.513,1.513,0,0,0-1.006.308,1.045,1.045,0,0,0-.365.844H110.1a2.551,2.551,0,0,1,.51-1.529,3.37,3.37,0,0,1,1.441-1.1,5.253,5.253,0,0,1,2.092-.4,4.15,4.15,0,0,1,2.791.883,3.09,3.09,0,0,1,1.033,2.483V36.8a4.546,4.546,0,0,0,.378,2.048V39Zm-2.1-1.767a2.188,2.188,0,0,0,1.037-.25,1.645,1.645,0,0,0,.7-.672V34.676h-.949q-1.907,0-2.03,1.318l-.009.149a1.017,1.017,0,0,0,.334.782A1.3,1.3,0,0,0,113.679,37.233Zm5.845-3.059a5.731,5.731,0,0,1,1-3.542,3.237,3.237,0,0,1,2.729-1.318,2.913,2.913,0,0,1,2.294,1.037V25.5h2.549V39H125.8l-.123-1.011a2.989,2.989,0,0,1-2.443,1.187,3.228,3.228,0,0,1-2.694-1.323A5.916,5.916,0,0,1,119.524,34.175Zm2.54.189a3.754,3.754,0,0,0,.466,2.051,1.517,1.517,0,0,0,1.354.713,1.7,1.7,0,0,0,1.661-.995V32.375a1.675,1.675,0,0,0-1.644-.995Q122.064,31.38,122.064,34.364ZM132.743,39h-2.549V29.49h2.549Zm-2.7-11.971a1.251,1.251,0,0,1,.382-.94,1.648,1.648,0,0,1,2.079,0,1.342,1.342,0,0,1,0,1.89,1.629,1.629,0,0,1-2.065,0A1.247,1.247,0,0,1,130.044,27.029Zm4.395,7.146a5.731,5.731,0,0,1,1-3.542,3.237,3.237,0,0,1,2.729-1.318,2.913,2.913,0,0,1,2.294,1.037V25.5h2.549V39h-2.294l-.123-1.011a2.989,2.989,0,0,1-2.443,1.187,3.228,3.228,0,0,1-2.694-1.323A5.916,5.916,0,0,1,134.439,34.175Zm2.54.189a3.754,3.754,0,0,0,.466,2.051,1.517,1.517,0,0,0,1.354.713,1.7,1.7,0,0,0,1.661-.995V32.375a1.675,1.675,0,0,0-1.644-.995Q136.979,31.38,136.979,34.364Zm7.6-.207a5.64,5.64,0,0,1,.545-2.522,3.989,3.989,0,0,1,1.569-1.714,4.577,4.577,0,0,1,2.377-.606,4.33,4.33,0,0,1,3.142,1.178,4.727,4.727,0,0,1,1.358,3.2l.018.65a4.97,4.97,0,0,1-1.222,3.511,4.735,4.735,0,0,1-6.561,0,5.058,5.058,0,0,1-1.226-3.586Zm2.54.18a3.555,3.555,0,0,0,.51,2.073,1.831,1.831,0,0,0,2.9.009,3.89,3.89,0,0,0,.519-2.267,3.519,3.519,0,0,0-.519-2.06,1.686,1.686,0,0,0-1.459-.731,1.658,1.658,0,0,0-1.441.726A3.955,3.955,0,0,0,147.122,34.338Z" transform="translate(804 674.727)" fill="#12263f"/>
    <g id="Grupo_55945" data-name="Grupo 55945" transform="translate(850.458 556.863)">
      <g id="Grupo_55942" data-name="Grupo 55942" transform="translate(50.056)">
        <path id="Trazado_105428" data-name="Trazado 105428" d="M439.717,556.7s1.81,6.722,7.02,7.029c0,0-6.958,2.4-7.075,7.537,0,0-1.37-7.2-6.863-7.46,0,0,6.4-.97,6.915-7.106Z" transform="translate(-422.506 -550.775)" fill="#fcb268"/>
        <path id="Trazado_105429" data-name="Trazado 105429" d="M439.833,572.233a.8.8,0,0,1-.781-.645c-.014-.066-1.325-6.589-6.119-6.814a.794.794,0,0,1-.081-1.578c.235-.038,5.778-.965,6.242-6.386a.8.8,0,0,1,.858-.726h0a.794.794,0,0,1,.7.584c.017.062,1.731,6.17,6.3,6.443a.8.8,0,0,1,.748.842h0a.8.8,0,0,1-.535.708c-.064.02-6.434,2.286-6.537,6.8a.794.794,0,0,1-.729.776h-.069Zm-4.11-8.348a9.3,9.3,0,0,1,4.028,4.717,11.347,11.347,0,0,1,4.752-4.473,9.7,9.7,0,0,1-4.42-4.63,8.533,8.533,0,0,1-4.355,4.391Z" transform="translate(-422.676 -550.944)" fill="#3a312a"/>
        <path id="Trazado_105430" data-name="Trazado 105430" d="M430.223,563.79s1.279,4.751,4.964,4.972c0,0-4.918,1.7-5,5.331,0,0-.968-5.1-4.852-5.277C425.333,568.815,429.856,568.131,430.223,563.79Z" transform="translate(-424.534 -548.85)" fill="#fcb268"/>
        <path id="Trazado_105431" data-name="Trazado 105431" d="M430.353,575.059a.8.8,0,0,1-.781-.647c-.008-.044-.905-4.482-4.11-4.631a.8.8,0,0,1-.081-1.582c.158-.025,3.91-.66,4.217-4.307a.8.8,0,0,1,1.562-.136c.011.042,1.179,4.2,4.246,4.386a.8.8,0,0,1,.748.842h0a.8.8,0,0,1-.535.708c-.044.014-4.4,1.568-4.468,4.6a.8.8,0,0,1-.73.777Zm-2.394-6.118a6.8,6.8,0,0,1,2.359,2.8,8.3,8.3,0,0,1,2.848-2.641,7.1,7.1,0,0,1-2.625-2.771,6.337,6.337,0,0,1-2.585,2.608Z" transform="translate(-424.703 -549.02)" fill="#3a312a"/>
        <path id="Trazado_105432" data-name="Trazado 105432" d="M430.223,552.664s1.279,4.752,4.964,4.973c0,0-4.918,1.7-5,5.331,0,0-.968-5.1-4.852-5.277C425.333,557.693,429.856,557.005,430.223,552.664Z" transform="translate(-424.534 -551.872)" fill="#fcb268"/>
        <path id="Trazado_105433" data-name="Trazado 105433" d="M430.355,563.933a.8.8,0,0,1-.781-.648c-.008-.042-.905-4.481-4.11-4.631a.794.794,0,0,1-.081-1.578c.158-.025,3.91-.66,4.217-4.3a.8.8,0,0,1,1.567-.144c.013.042,1.18,4.2,4.246,4.388a.8.8,0,0,1,.212,1.551c-.043.015-4.4,1.568-4.467,4.6a.8.8,0,0,1-.73.776h-.066Zm-2.394-6.119a6.805,6.805,0,0,1,2.359,2.8,8.339,8.339,0,0,1,2.848-2.638,7.094,7.094,0,0,1-2.625-2.773,6.342,6.342,0,0,1-2.585,2.609Z" transform="translate(-424.704 -552.041)" fill="#3a312a"/>
      </g>
      <path id="Trazado_103889" data-name="Trazado 103889" d="M447.813,581.271l-17.66-6.307H407.448l-17.66,6.307L386,603.976l1.261,25.228v5.046h11.106l.247,10.091H413.75l5.046-3.784,5.044,3.784h15.132l.247-10.091h11.106V629.2l1.261-25.228Z" transform="translate(-385.159 -545.816)" fill="#8bbed5"/>
      <path id="Trazado_103890" data-name="Trazado 103890" d="M414.22,585.863l-6.306,1.261-5.047-11.353,3.785-3.784Z" transform="translate(-380.579 -546.624)" fill="#8bbed5"/>
      <path id="Trazado_103891" data-name="Trazado 103891" d="M411.795,585.863l6.307,1.261,5.046-11.353-3.784-3.784Z" transform="translate(-378.155 -546.624)" fill="#8bbed5"/>
      <path id="Trazado_103892" data-name="Trazado 103892" d="M420.975,571.988l-2.752,5.046-4.815,8.83-4.817-8.83-2.747-5.046Z" transform="translate(-379.771 -546.624)" fill="#7a8a99"/>
      <rect id="Rectángulo_5166" data-name="Rectángulo 5166" width="12.716" height="5.086" transform="translate(1.272 83.333)" fill="#8bbed5"/>
      <rect id="Rectángulo_5167" data-name="Rectángulo 5167" width="10.173" height="5.086" transform="translate(54.678 83.333)" fill="#8bbed5"/>
      <g id="Grupo_54934" data-name="Grupo 54934" transform="translate(0 23.569)">
        <g id="Grupo_55944" data-name="Grupo 55944">
          <g id="Grupo_55943" data-name="Grupo 55943" clip-path="url(#clip-path)">
            <g id="Grupo_54933" data-name="Grupo 54933" transform="translate(-0.408 0.535)">
              <path id="Trazado_103893" data-name="Trazado 103893" d="M417.641,575.956l-4.815,8.83-4.818-8.83Z" transform="translate(-378.775 -569.65)" fill="#3a312a"/>
              <path id="Trazado_103894" data-name="Trazado 103894" d="M453.125,605.117a1.364,1.364,0,0,0-.015-.27l-3.785-22.705a1.261,1.261,0,0,0-.819-.98l-17.391-6.212-3.585-3.583a1.261,1.261,0,0,0-.891-.37H411.506a1.255,1.255,0,0,0-.889.37l-3.585,3.583-17.393,6.21a1.263,1.263,0,0,0-.82.982l-3.784,22.705a1.2,1.2,0,0,0-.015.27l1.26,25.2v5.015a1.261,1.261,0,0,0,1.26,1.261h9.876l.216,8.86a1.262,1.262,0,0,0,1.261,1.231h15.132a1.273,1.273,0,0,0,.763-.254l4.288-3.217,4.288,3.217a1.268,1.268,0,0,0,.763.254H439.26a1.262,1.262,0,0,0,1.261-1.231l.216-8.86h9.875a1.262,1.262,0,0,0,1.261-1.261h0v-5.015ZM419.068,583.5l-2.691-4.934h5.38Zm7.869-9.155,1.979,1.979-4.284,9.639L421,585.235Zm-2.426-.823-1.375,2.523H415l-1.376-2.523Zm-13.311.823,5.941,10.89-3.635.727-4.284-9.639Zm-22.405,59.721v-2.523h8.49l.061,2.523ZM413.6,644.157H400.117l-1.231-50.482-2.523.061.862,35.289h-8.492l-1.2-23.894,3.641-21.839,15.859-5.664,4.571,10.283a1.261,1.261,0,0,0,1.4.725l4.8-.96v53.333Zm24.414,0H424.535L420.33,641V587.671l4.8.959a1.263,1.263,0,0,0,1.4-.725l4.571-10.283,15.859,5.664,3.641,21.839-1.2,23.894h-8.492l.862-35.289-2.523-.061Zm11.317-10.091h-8.554l.061-2.523h8.492Z" transform="translate(-385.018 -570.997)" fill="#3a312a"/>
            </g>
          </g>
        </g>
      </g>
      <rect id="Rectángulo_5168" data-name="Rectángulo 5168" width="3.815" height="1.272" transform="translate(26.703 46.457)" fill="#3a312a"/>
      <rect id="Rectángulo_5169" data-name="Rectángulo 5169" width="3.815" height="1.272" transform="translate(26.703 56.63)" fill="#3a312a"/>
      <rect id="Rectángulo_5170" data-name="Rectángulo 5170" width="3.815" height="1.272" transform="translate(26.703 66.802)" fill="#3a312a"/>
      <rect id="Rectángulo_5171" data-name="Rectángulo 5171" width="3.815" height="2.543" transform="translate(26.703 75.703)" fill="#3a312a"/>
      <rect id="Rectángulo_5172" data-name="Rectángulo 5172" width="3.815" height="2.543" transform="translate(26.703 85.876)" fill="#3a312a"/>
    </g>
    <g id="Grupo_55949" data-name="Grupo 55949" transform="translate(572.803 580.432)">
      <path id="Trazado_103889-2" data-name="Trazado 103889" d="M364.813,581.271l-17.66-6.307H324.448l-17.66,6.307L303,603.976l1.261,25.228v5.046h11.106l.247,10.091H330.75l5.044-3.784,5.046,3.784h15.132l.247-10.091h11.106V629.2l1.261-25.228Z" transform="translate(-302.159 -569.384)" fill="#ccdce4"/>
      <path id="Trazado_103890-2" data-name="Trazado 103890" d="M331.22,585.863l-6.306,1.261-5.047-11.353,3.784-3.784Z" transform="translate(-297.579 -570.192)" fill="#abbac2"/>
      <path id="Trazado_103891-2" data-name="Trazado 103891" d="M328.8,585.863l6.307,1.261,5.046-11.353-3.784-3.784Z" transform="translate(-295.155 -570.192)" fill="#abbac2"/>
      <path id="Trazado_103892-2" data-name="Trazado 103892" d="M337.975,571.988l-2.752,5.046-4.817,8.83-4.815-8.83-2.748-5.046Z" transform="translate(-296.771 -570.192)" fill="#7a8a99"/>
      <rect id="Rectángulo_5166-2" data-name="Rectángulo 5166" width="12.716" height="5.086" transform="translate(1.272 59.764)" fill="#d7e6eb"/>
      <rect id="Rectángulo_5167-2" data-name="Rectángulo 5167" width="10.173" height="5.086" transform="translate(54.678 59.764)" fill="#d7e6eb"/>
      <g id="Grupo_54934-2" data-name="Grupo 54934">
        <g id="Grupo_55947" data-name="Grupo 55947">
          <g id="Grupo_55946" data-name="Grupo 55946" clip-path="url(#clip-path)">
            <g id="Grupo_54933-2" data-name="Grupo 54933" transform="translate(-0.408 0.535)">
              <path id="Trazado_103893-2" data-name="Trazado 103893" d="M334.641,575.956l-4.815,8.83-4.818-8.83Z" transform="translate(-295.775 -569.65)" fill="#3a312a"/>
              <path id="Trazado_103894-2" data-name="Trazado 103894" d="M370.125,605.117a1.364,1.364,0,0,0-.015-.27l-3.785-22.705a1.261,1.261,0,0,0-.819-.98l-17.391-6.212-3.585-3.583a1.261,1.261,0,0,0-.891-.37H328.506a1.26,1.26,0,0,0-.89.37l-3.585,3.583-17.391,6.21a1.263,1.263,0,0,0-.82.982l-3.784,22.705a1.194,1.194,0,0,0-.015.27l1.26,25.2v5.015a1.261,1.261,0,0,0,1.26,1.261h9.876l.216,8.86a1.262,1.262,0,0,0,1.261,1.231h15.132a1.273,1.273,0,0,0,.763-.254l4.288-3.217,4.288,3.217a1.268,1.268,0,0,0,.763.254H356.26a1.262,1.262,0,0,0,1.261-1.231l.216-8.86h9.875a1.262,1.262,0,0,0,1.261-1.261h0v-5.015ZM336.068,583.5l-2.691-4.934h5.38Zm7.867-9.155,1.979,1.979-4.283,9.639L338,585.235Zm-2.425-.823-1.375,2.523H332l-1.376-2.523Zm-13.311.823,5.941,10.89-3.635.727-4.284-9.639Zm-22.405,59.721v-2.523h8.49l.061,2.523ZM330.6,644.157H317.117l-1.231-50.482-2.523.061.862,35.289h-8.492l-1.2-23.894,3.641-21.839,15.859-5.664,4.571,10.283a1.261,1.261,0,0,0,1.4.725l4.8-.96v53.333Zm24.416,0H341.535L337.33,641V587.671l4.8.959a1.263,1.263,0,0,0,1.4-.725l4.571-10.283,15.859,5.664,3.641,21.839-1.2,23.894h-8.492l.862-35.289-2.523-.061Zm11.317-10.091h-8.554l.061-2.523h8.49Z" transform="translate(-302.018 -570.997)" fill="#3a312a"/>
            </g>
          </g>
        </g>
      </g>
      <path id="Trazado_105702" data-name="Trazado 105702" d="M325.387,595.371a1.069,1.069,0,0,0-1.509,0l-1.38,1.38-1.38-1.38a1.067,1.067,0,0,0-1.509,1.509l1.38,1.38-1.38,1.38a1.067,1.067,0,0,0,1.509,1.509l1.38-1.38,1.38,1.38a1.067,1.067,0,0,0,1.509-1.509l-1.38-1.38,1.38-1.38A1.069,1.069,0,0,0,325.387,595.371Z" transform="translate(-297.734 -563.927)" fill="#3a312a"/>
      <g id="Grupo_55948" data-name="Grupo 55948" transform="translate(42.006 55.264)">
        <path id="Trazado_105703" data-name="Trazado 105703" d="M340.742,620.751a1.138,1.138,0,1,0,1.139,1.138A1.139,1.139,0,0,0,340.742,620.751Z" transform="translate(-334.225 -612.214)" fill="#3a312a"/>
        <path id="Trazado_105704" data-name="Trazado 105704" d="M336.513,617.394a1.138,1.138,0,1,0,1.138,1.138A1.141,1.141,0,0,0,336.513,617.394Z" transform="translate(-335.374 -613.125)" fill="#3a312a"/>
        <path id="Trazado_105705" data-name="Trazado 105705" d="M340.742,614.037a1.139,1.139,0,1,0,1.139,1.139A1.14,1.14,0,0,0,340.742,614.037Z" transform="translate(-334.225 -614.037)" fill="#3a312a"/>
      </g>
      <rect id="Rectángulo_5371" data-name="Rectángulo 5371" width="9.763" height="9.763" transform="translate(44.283 37.059)" fill="#ffb266"/>
      <path id="Trazado_105706" data-name="Trazado 105706" d="M346.776,611.149l1.845.036.242-12.2-1.845-.037v.074l-9.631-.192a.922.922,0,0,0-.941.9l-.05,2.478-.306-.006a.923.923,0,0,0-.037,1.845l.308.006-.032,1.555-.308-.006a.923.923,0,0,0-.036,1.845l.306.006-.048,2.478a.922.922,0,0,0,.9.94l9.631.192Zm.038-1.924-8.709-.173.032-1.556.306.006a.923.923,0,1,0,.037-1.845l-.308-.005.032-1.556.308.006a.923.923,0,0,0,.036-1.845l-.306-.006.031-1.555,8.709.173Z" transform="translate(-293.448 -562.902)" fill="#3a312a"/>
    </g>
    <path id="Trazado_105707" data-name="Trazado 105707" d="M1341.876,457.2h34.972l-8.3-8.266.945-.849,19.869,10.265-19.471,10c-.625-1.917-.625-1.917,7.282-8.7h-35.225Q1341.911,458.425,1341.876,457.2Z" transform="translate(-612.359 227.378)" fill="#8c757e"/>
  </g>
</svg>
